<?xml version="1.0" encoding="utf-8"?>
<!-- Generator: Adobe Illustrator 28.0.0, SVG Export Plug-In . SVG Version: 6.00 Build 0)  -->
<svg version="1.1" id="Layer_1" xmlns="http://www.w3.org/2000/svg" xmlns:xlink="http://www.w3.org/1999/xlink" x="0px" y="0px"
	 viewBox="0 0 1920 1080" style="enable-background:new 0 0 1920 1080;" xml:space="preserve">
<style type="text/css">
	.st0{fill:#EA7100;}
</style>
<g id="Inter_Empresas">
	<g id="Empresas">
		<g>
			<path d="M795.7,865.8c-10.2-5.7-18.1-13.9-23.7-24.6c-5.6-10.6-8.5-23-8.5-37c0-13.8,2.8-26.1,8.5-37
				c5.6-10.8,13.6-19.3,23.9-25.4c10.3-6.1,22.1-9.1,35.3-9.1c12.9,0,24.3,3,34.1,8.9c9.8,5.9,17.4,14,22.8,24.2
				c5.4,10.2,8.1,21.4,8.1,33.6v3.3h-119c0.2,19.1,5.1,33.7,14.7,43.9c9.6,10.2,22.6,15.3,39,15.3c12.9,0,23.9-3.4,33-10.1
				c9.1-6.7,15.2-15.3,18.3-25.7h13.6c-2,9.3-6,17.6-11.9,24.8c-5.9,7.3-13.5,13-22.6,17.2c-9.2,4.2-19.3,6.3-30.4,6.3
				C817.6,874.4,805.9,871.5,795.7,865.8z M881.7,790.4c-2-13.1-7.5-23.8-16.5-32.2c-9-8.4-20.3-12.6-34-12.6
				c-14,0-26,4.1-35.9,12.1c-9.9,8.1-15.8,19-17.6,32.6H881.7z"/>
			<path d="M920.1,735.2h13.4v13.4h0.8c4.4-4.9,9.6-8.8,15.8-11.7c6.2-2.9,12.7-4.4,19.6-4.4c6.4,0,12.3,1.2,17.9,3.5
				c5.5,2.4,10.2,6,14.1,10.9h0.8c3.8-4.4,8.7-7.9,14.6-10.5c5.9-2.6,12.7-4,20.3-4c13.1,0,23.1,3.4,30,10.1
				c6.9,6.7,10.4,16.6,10.4,29.7v99.3h-13.6V769.6c0-9.1-2.4-15.5-7.2-19.1c-4.8-3.6-12.1-5.5-21.7-5.5c-13.5,0-23.3,3.7-29.5,11.2
				v115.4h-13.6V766.9c0-7.8-2.2-13.4-6.7-16.8c-4.5-3.4-11-5-19.5-5c-11.8,0-22.6,3.7-32.2,11.2v115.4h-13.6V735.2z"/>
			<path d="M1115.4,862.4v52.9h-13.6V735.2h12.5v13.9h0.5c6-4.9,13-8.8,20.9-11.7c7.9-2.9,15.9-4.4,23.9-4.4
				c14.2,0,26.4,3.1,36.6,9.4c10.2,6.3,17.9,14.8,23.1,25.5c5.2,10.7,7.8,22.9,7.8,36.6c0,12.7-2.7,24.5-8.2,35.2
				c-5.5,10.7-13.4,19.3-23.9,25.7c-10.5,6.4-22.9,9.6-37.2,9.6C1141.6,875,1127.5,870.8,1115.4,862.4z M1135.5,859.1
				c7.5,2.2,14.8,3.3,22.1,3.3c11.6,0,21.6-2.6,30-7.9c8.4-5.3,14.6-12.2,18.8-20.9c4.2-8.6,6.3-18.1,6.3-28.2
				c0-17.6-4.7-32-14.1-43.1c-9.4-11.1-22.4-16.6-39.2-16.6c-8.2,0-15.9,1.3-23.1,4c-7.2,2.6-14.2,6.4-21.1,11.3v88.7
				C1121.4,853.8,1128.1,856.9,1135.5,859.1z"/>
			<path d="M1249.9,735.2h11.5v17.5h0.8c2.2-6.9,5.9-11.9,11.1-15c5.2-3.1,11.9-4.6,20.1-4.6h12.6v13.6h-19.9
				c-7.3,0-12.8,1.8-16.6,5.3c-3.8,3.5-5.7,8.8-5.7,15.7v104h-13.6V735.2z"/>
			<path d="M1340.2,865.8c-10.2-5.7-18.1-13.9-23.7-24.6c-5.6-10.6-8.5-23-8.5-37c0-13.8,2.8-26.1,8.5-37
				c5.6-10.8,13.6-19.3,23.9-25.4c10.3-6.1,22.1-9.1,35.3-9.1c12.9,0,24.3,3,34.1,8.9c9.8,5.9,17.4,14,22.8,24.2
				c5.4,10.2,8.1,21.4,8.1,33.6v3.3h-119c0.2,19.1,5.1,33.7,14.7,43.9c9.6,10.2,22.6,15.3,39,15.3c12.9,0,23.9-3.4,33-10.1
				c9.1-6.7,15.2-15.3,18.3-25.7h13.6c-2,9.3-6,17.6-11.9,24.8c-5.9,7.3-13.5,13-22.6,17.2c-9.2,4.2-19.3,6.3-30.4,6.3
				C1362.1,874.4,1350.4,871.5,1340.2,865.8z M1426.2,790.4c-2-13.1-7.5-23.8-16.5-32.2c-9-8.4-20.3-12.6-34-12.6
				c-14,0-26,4.1-35.9,12.1c-9.9,8.1-15.8,19-17.6,32.6H1426.2z"/>
			<path d="M1455.1,872.5v-11.2h21c24.6,0,36.8-7.4,36.8-22.1c0-5.6-2.1-10.6-6.4-15c-4.3-4.4-10.6-9.6-19-15.8
				c-6.9-4.9-12.2-8.9-16-12c-3.7-3.1-7.3-7.3-10.6-12.7c-3.4-5.4-5-11.4-5-18.1c0-10.4,4.1-18.5,12.4-24.3c8.3-5.8,19.6-8.7,34-8.7
				c8.6,0,15.3,0.4,20.2,1.1v12h-15.8c-12.6,0-21.9,1.4-28.1,4.1c-6.2,2.7-9.3,8-9.3,15.8c0,4.4,1.2,8.3,3.6,11.7
				c2.4,3.5,4.9,6.3,7.5,8.5c2.6,2.2,8,6.2,16,12c9.1,6.4,16.4,12.6,22,18.8c5.5,6.2,8.3,13.4,8.3,21.6c0,10.7-3.8,19.5-11.3,26.2
				c-7.5,6.7-19.4,10.1-35.6,10.1C1469.6,874.4,1461.5,873.8,1455.1,872.5z"/>
			<path d="M1556.3,863.5c-8.5-7.3-12.7-17.5-12.7-30.6c0-8.7,2.2-16.4,6.7-22.9c4.5-6.5,10.4-11.5,17.7-15
				c7.4-3.5,15.4-5.2,24.1-5.2c6.9,0,13.4,1,19.4,3c6,2,11,5,15,9h1.1v-21c0-23.3-10.7-34.9-32.2-34.9c-10,0-18.1,2.7-24.2,8
				c-6.1,5.4-9.1,12.9-9.1,22.5h-13.6c0-7.5,2-14.5,6-21.1c4-6.6,9.6-12,16.8-16.1c7.2-4.1,15.4-6.1,24.7-6.1
				c14.2,0,25.3,4.2,33.4,12.5c8.1,8.4,12.1,20.1,12.1,35.2v90.9h-12.3v-15.8h-1.1c-3.6,5.5-9.2,9.9-16.6,13.4
				c-7.5,3.5-15.5,5.2-24,5.2C1575.2,874.4,1564.7,870.8,1556.3,863.5z M1611.4,857.4c5.7-3.2,11.2-7.6,16.5-13.2V810
				c-4.4-2.5-9.6-4.5-15.8-5.9c-6.2-1.4-12.6-2-19.1-2c-10.6,0-19.1,2.5-25.5,7.6c-6.5,5.1-9.7,12.6-9.7,22.6
				c0,10,2.7,17.5,8.2,22.4c5.5,4.9,13.3,7.4,23.5,7.4C1598.3,862.1,1605.7,860.5,1611.4,857.4z"/>
			<path d="M1660.5,872.5v-11.2h21c24.6,0,36.8-7.4,36.8-22.1c0-5.6-2.1-10.6-6.4-15c-4.3-4.4-10.6-9.6-19-15.8
				c-6.9-4.9-12.2-8.9-16-12c-3.7-3.1-7.3-7.3-10.6-12.7c-3.4-5.4-5-11.4-5-18.1c0-10.4,4.1-18.5,12.4-24.3c8.3-5.8,19.6-8.7,34-8.7
				c8.6,0,15.3,0.4,20.2,1.1v12h-15.8c-12.6,0-21.9,1.4-28.1,4.1c-6.2,2.7-9.3,8-9.3,15.8c0,4.4,1.2,8.3,3.6,11.7
				c2.4,3.5,4.9,6.3,7.5,8.5c2.6,2.2,8,6.2,16,12c9.1,6.4,16.4,12.6,22,18.8c5.5,6.2,8.3,13.4,8.3,21.6c0,10.7-3.8,19.5-11.3,26.2
				c-7.5,6.7-19.4,10.1-35.6,10.1C1675,874.4,1666.8,873.8,1660.5,872.5z"/>
		</g>
	</g>
	<g id="Principal">
		<path class="st0" d="M1152.8,513.8h70.8V590h-58.9c-61.9,0-100-21.4-100-100V319.7h-42.1c-7.4,0-11.2-8.8-6.2-14.2L1138,167.4
			c5.2-5.7,14.7-2,14.7,5.7v70.4h70.2v76.2h-70.2V513.8z M900.3,238.2c-42.3,0-73.8,24.4-89.3,62.5h-3v-57.2h-83.9V590h88.1V321.5
			h58.9c25.6,0,35.1,5.4,35.1,32.7V590h88.1V337C994.4,267.3,961.1,238.2,900.3,238.2z M571.7,590h88.1V243.5h-88.1V590z
			 M1725.5,304.8h-3.6v-61.3h-87.5V590h93.5V326.3h82.2v-88.1h-11.3C1755.2,238.2,1736.2,257.2,1725.5,304.8z M1593.3,407.8V434
			H1329c4.7,51.5,37.1,85.7,86.9,85.7c44.6,0,76.8-23.8,83.3-53h94.1C1573.7,540,1506.4,596,1414.7,596
			c-107.2,0-179.8-76.2-179.8-176.2s70.2-181.6,182.2-181.6C1522.5,238.2,1593.3,310.8,1593.3,407.8z M1331.6,370.3h170.6
			c-13.4-34.8-41.5-59.5-85.1-59.5C1378.9,310.8,1345.4,330.9,1331.6,370.3z"/>
		<g>
			<path class="st0" d="M110,575.2h181.2l1-5l-178.7-37.1l3.5-19.8l178.7,38.6l1.5-6.9l-168.8-73.3l7.4-20.3L305,522.7l3.5-5
				l-150-111.4l15.3-24.3l149,111.4l4.5-5.9L210,338.6l28.7-23.3L355,457.4l4.9-4.5l-67.8-172.3l41.1-17.3l63.9,168.8l5-1.5V243.5
				h65.8V590H110V575.2z"/>
		</g>
	</g>
</g>
</svg>
